<svg xmlns="http://www.w3.org/2000/svg" viewBox="0 0 1909.56 316.72"><defs><style>.cls-1{fill:#b2b2b2;}</style></defs><g id="Capa_2" data-name="Capa 2"><g id="Layer_1" data-name="Layer 1"><path class="cls-1" d="M177.62,0a3.77,3.77,0,1,0,3.77,3.77A3.77,3.77,0,0,0,177.62,0Z"/><path class="cls-1" d="M134.16,0a3.77,3.77,0,1,0,3.77,3.77A3.77,3.77,0,0,0,134.16,0Z"/><path class="cls-1" d="M90.7,0a3.77,3.77,0,1,0,3.77,3.77A3.77,3.77,0,0,0,90.7,0Z"/><path class="cls-1" d="M47.23,0A3.77,3.77,0,1,0,51,3.77,3.77,3.77,0,0,0,47.23,0Z"/><path class="cls-1" d="M3.77,0A3.77,3.77,0,1,0,7.54,3.77,3.77,3.77,0,0,0,3.77,0Z"/><path class="cls-1" d="M177.62,36.28a3.77,3.77,0,1,0,3.77,3.77A3.77,3.77,0,0,0,177.62,36.28Z"/><path class="cls-1" d="M134.16,36.28a3.77,3.77,0,1,0,3.77,3.77A3.77,3.77,0,0,0,134.16,36.28Z"/><path class="cls-1" d="M90.7,36.28a3.77,3.77,0,1,0,3.77,3.77A3.76,3.76,0,0,0,90.7,36.28Z"/><path class="cls-1" d="M47.23,36.28A3.77,3.77,0,1,0,51,40.05,3.77,3.77,0,0,0,47.23,36.28Z"/><path class="cls-1" d="M3.77,36.28a3.77,3.77,0,1,0,3.77,3.77A3.77,3.77,0,0,0,3.77,36.28Z"/><path class="cls-1" d="M177.62,72.55a3.77,3.77,0,1,0,3.77,3.77A3.77,3.77,0,0,0,177.62,72.55Z"/><path class="cls-1" d="M134.16,72.55a3.77,3.77,0,1,0,3.77,3.77A3.77,3.77,0,0,0,134.16,72.55Z"/><circle class="cls-1" cx="90.7" cy="76.32" r="3.77"/><circle class="cls-1" cx="47.23" cy="76.32" r="3.77"/><circle class="cls-1" cx="3.77" cy="76.32" r="3.77"/><path class="cls-1" d="M1905.79,227.1a3.77,3.77,0,1,0,3.77,3.77A3.77,3.77,0,0,0,1905.79,227.1Z"/><path class="cls-1" d="M1862.33,227.1a3.77,3.77,0,1,0,3.77,3.77A3.77,3.77,0,0,0,1862.33,227.1Z"/><path class="cls-1" d="M1818.87,227.1a3.77,3.77,0,1,0,3.77,3.77A3.77,3.77,0,0,0,1818.87,227.1Z"/><path class="cls-1" d="M1775.4,227.1a3.77,3.77,0,1,0,3.78,3.77A3.77,3.77,0,0,0,1775.4,227.1Z"/><path class="cls-1" d="M1731.94,227.1a3.77,3.77,0,1,0,3.77,3.77A3.77,3.77,0,0,0,1731.94,227.1Z"/><path class="cls-1" d="M1905.79,263.38a3.77,3.77,0,1,0,3.77,3.77A3.77,3.77,0,0,0,1905.79,263.38Z"/><path class="cls-1" d="M1862.33,263.38a3.77,3.77,0,1,0,3.77,3.77A3.77,3.77,0,0,0,1862.33,263.38Z"/><path class="cls-1" d="M1818.87,263.38a3.77,3.77,0,1,0,3.77,3.77A3.77,3.77,0,0,0,1818.87,263.38Z"/><path class="cls-1" d="M1775.4,263.38a3.77,3.77,0,1,0,3.78,3.77A3.77,3.77,0,0,0,1775.4,263.38Z"/><path class="cls-1" d="M1731.94,263.38a3.77,3.77,0,1,0,3.77,3.77A3.77,3.77,0,0,0,1731.94,263.38Z"/><circle class="cls-1" cx="1905.79" cy="303.42" r="3.77"/><circle class="cls-1" cx="1862.33" cy="303.42" r="3.77"/><circle class="cls-1" cx="1818.87" cy="303.42" r="3.77"/><path class="cls-1" d="M1775.4,299.65a3.78,3.78,0,1,0,3.78,3.77A3.77,3.77,0,0,0,1775.4,299.65Z"/><path class="cls-1" d="M1731.94,299.65a3.78,3.78,0,1,0,3.77,3.77A3.77,3.77,0,0,0,1731.94,299.65Z"/><polygon class="cls-1" points="153.03 199.12 144.38 199.12 144.38 190.47 140.06 190.47 140.06 199.12 131.41 199.12 131.41 203.44 140.06 203.44 140.06 212.09 144.38 212.09 144.38 203.44 153.03 203.44 153.03 199.12"/><polygon class="cls-1" points="1666.79 303.75 1658.14 303.75 1658.14 295.1 1653.82 295.1 1653.82 303.75 1645.17 303.75 1645.17 308.07 1653.82 308.07 1653.82 316.72 1658.14 316.72 1658.14 308.07 1666.79 308.07 1666.79 303.75"/><circle class="cls-1" cx="194.31" cy="232.26" r="7.62"/></g></g></svg>