<svg xmlns="http://www.w3.org/2000/svg" viewBox="0 0 123.95 123.95"><defs><style>.cls-1{fill:none;stroke:#0a518f;stroke-miterlimit:10;stroke-width:3px;}.cls-2{fill:#0a518f;}</style></defs><g id="Capa_2" data-name="Capa 2"><g id="Layer_1" data-name="Layer 1"><circle class="cls-1" cx="61.98" cy="61.98" r="60.48"/><path class="cls-2" d="M96.36,26.41H27.6a1.19,1.19,0,0,0-1.19,1.19h0V51.31h2.37V28.78H95.17V54.86H53.68v2.37H96.36a1.18,1.18,0,0,0,1.18-1.18h0V27.6a1.18,1.18,0,0,0-1.18-1.19Z"/><rect class="cls-2" x="65.53" y="32.34" width="23.71" height="2.37"/><rect class="cls-2" x="69.09" y="39.45" width="23.71" height="2.37"/><rect class="cls-2" x="64.35" y="46.57" width="23.71" height="2.37"/><path class="cls-2" d="M27.6,97.54H39.45a1.18,1.18,0,0,0,1.19-1.18h0V86.42a5.46,5.46,0,0,0-2.12-4.29h9a5.46,5.46,0,0,0-2.12,4.29v9.94a1.18,1.18,0,0,0,1.18,1.18H58.42a1.18,1.18,0,0,0,1.19-1.18h0V86.42a5.47,5.47,0,0,0-3-4.84,5.92,5.92,0,0,0-5.32-10V47.29l10.88-5.66a3.82,3.82,0,1,0-2.94-7.06l-.1,0-9.61,5a5.81,5.81,0,0,0,.58-2.52,5.93,5.93,0,1,0-11.85,0,5.86,5.86,0,0,0,1.21,3.56h0a8.11,8.11,0,0,0-7.55,5.26L28.71,56.81a3.8,3.8,0,1,0,7.13,2.61l1.24-3.94V72.63a5.9,5.9,0,0,0-9.48,4.7,5.92,5.92,0,0,0,1.79,4.25,5.47,5.47,0,0,0-3,4.84v9.94a1.18,1.18,0,0,0,1.19,1.18Zm29.63-2.37H47.75V86.42a3.1,3.1,0,0,1,3.11-3.1h3.27a3.1,3.1,0,0,1,3.1,3.1ZM56.05,77.34a3.56,3.56,0,1,1-3.56-3.55A3.56,3.56,0,0,1,56.05,77.34ZM40.64,37.08a3.56,3.56,0,1,1,3.55,3.56A3.55,3.55,0,0,1,40.64,37.08Zm-7,21.58a1.43,1.43,0,0,1-1.83.85l-.15-.06A1.44,1.44,0,0,1,31,57.57l3.16-10.91A5.73,5.73,0,0,1,39.43,43h8.4a1.26,1.26,0,0,0,.54-.13l11.79-6.12a1.45,1.45,0,0,1,1.86.69,1.42,1.42,0,0,1,.06,1.16,1.49,1.49,0,0,1-.89.88l-11.61,6a1.18,1.18,0,0,0-.64,1.06V72.63a5.86,5.86,0,0,0-1.85,7.13H45.38V59.61H43V79.76H38.93a6.05,6.05,0,0,0,.52-2.37h0V47.75a1.18,1.18,0,0,0-1.18-1.18,1.17,1.17,0,0,0-1.13.83Zm-.07,15.13A3.56,3.56,0,1,1,30,77.34,3.55,3.55,0,0,1,33.53,73.79ZM28.78,86.42a3.12,3.12,0,0,1,3.11-3.1h3.27a3.11,3.11,0,0,1,3.11,3.1v8.75H28.78Z"/><path class="cls-2" d="M64.35,86.42v9.94a1.18,1.18,0,0,0,1.18,1.18H77.39a1.18,1.18,0,0,0,1.18-1.18h0V86.42a5.44,5.44,0,0,0-3-4.84,5.93,5.93,0,1,0-8.38-.11l.1.11A5.46,5.46,0,0,0,64.35,86.42Zm7.11-12.63a3.56,3.56,0,1,1-3.56,3.55A3.55,3.55,0,0,1,71.46,73.79ZM66.72,86.42a3.1,3.1,0,0,1,3.11-3.1H73.1a3.1,3.1,0,0,1,3.1,3.1v8.75H66.72Z"/><path class="cls-2" d="M94.57,81.58a5.93,5.93,0,1,0-8.39-.11l.11.11a5.44,5.44,0,0,0-3,4.84v9.94a1.18,1.18,0,0,0,1.18,1.18H96.36a1.18,1.18,0,0,0,1.18-1.18h0V86.42A5.46,5.46,0,0,0,94.57,81.58Zm-4.14-7.79a3.56,3.56,0,1,1-3.56,3.55A3.56,3.56,0,0,1,90.43,73.79Zm4.74,21.38H85.69V86.42a3.1,3.1,0,0,1,3.1-3.1h3.27a3.1,3.1,0,0,1,3.11,3.1Z"/></g></g></svg>