<svg xmlns="http://www.w3.org/2000/svg" viewBox="0 0 123.95 123.95"><defs><style>.cls-1{fill:#fff;}.cls-2{fill:none;stroke:#fff;stroke-miterlimit:10;stroke-width:3px;}</style></defs><g id="Capa_2" data-name="Capa 2"><g id="Layer_1" data-name="Layer 1"><path class="cls-1" d="M93.3,67.36V34.08a3.43,3.43,0,0,0-3.43-3.42H34.08a3.42,3.42,0,0,0-3.42,3.42V67.36a3.42,3.42,0,0,0,3.42,3.42h5.2a6.33,6.33,0,0,0-3.68,5.74v1.32a6.26,6.26,0,0,0,1.27,3.79l-3,1A4.62,4.62,0,0,0,30.66,87v5a1.23,1.23,0,0,0,1.22,1.23H92.07a1.23,1.23,0,0,0,1.23-1.23V87a4.62,4.62,0,0,0-3.17-4.39l-3-1a6.32,6.32,0,0,0,1.26-3.79V76.52a6.33,6.33,0,0,0-3.68-5.74h5.2a3.43,3.43,0,0,0,3.43-3.42Zm-60.19,0V34.08a1,1,0,0,1,1-1H84.24v27a1.23,1.23,0,0,0,2.45,0v-27h3.18a1,1,0,0,1,1,1V67.36a1,1,0,0,1-1,1H39.71V42.16a1.22,1.22,0,1,0-2.44,0V68.34H34.08a1,1,0,0,1-1-1ZM65.84,77.84a3.87,3.87,0,0,1-1.7,3.2l-.21.13a3.81,3.81,0,0,1-3.91,0,1.37,1.37,0,0,0-.2-.13,3.85,3.85,0,0,1-1.71-3.2V76.52a3.87,3.87,0,1,1,7.73,0Zm-6.49-7.06a6.33,6.33,0,0,0-3.68,5.74v1.32a6.32,6.32,0,0,0,1.26,3.79l-3,1A4.59,4.59,0,0,0,52,83.88a4.69,4.69,0,0,0-2-1.25l-3-1a6.32,6.32,0,0,0,1.26-3.79V76.52a6.34,6.34,0,0,0-3.67-5.74Zm-21.3,5.74a3.87,3.87,0,1,1,7.73,0v1.32A3.85,3.85,0,0,1,44.07,81a1.37,1.37,0,0,0-.2.13,3.81,3.81,0,0,1-3.91,0L39.75,81a3.87,3.87,0,0,1-1.7-3.2ZM33.11,87A2.15,2.15,0,0,1,34.59,85l4.48-1.49a6.29,6.29,0,0,0,5.69,0L49.23,85A2.16,2.16,0,0,1,50.72,87v3.83H33.11Zm20.06,0A2.16,2.16,0,0,1,54.66,85l4.47-1.49a6.29,6.29,0,0,0,5.69,0L69.3,85A2.15,2.15,0,0,1,70.78,87v3.83H53.17Zm37.68,0v3.83H73.23V87A2.16,2.16,0,0,1,74.72,85l4.48-1.49a6.27,6.27,0,0,0,5.68,0L89.36,85A2.16,2.16,0,0,1,90.85,87ZM85.9,76.52v1.32A3.84,3.84,0,0,1,84.2,81a1.37,1.37,0,0,0-.2.13,3.83,3.83,0,0,1-3.92,0,1.37,1.37,0,0,0-.2-.13,3.84,3.84,0,0,1-1.7-3.2V76.52a3.86,3.86,0,1,1,7.72,0Zm-10.17,0v1.32A6.32,6.32,0,0,0,77,81.63l-3,1A4.72,4.72,0,0,0,72,83.88a4.72,4.72,0,0,0-1.94-1.25l-3-1a6.26,6.26,0,0,0,1.27-3.79V76.52a6.33,6.33,0,0,0-3.68-5.74h14.8a6.33,6.33,0,0,0-3.68,5.74Z"/><path class="cls-1" d="M58.74,57.14a2.69,2.69,0,0,0,1.27.32A2.65,2.65,0,0,0,61.44,57L67.82,53a2.65,2.65,0,0,0,0-4.46L61.44,44.4a2.65,2.65,0,0,0-4.08,2.23v8.18a2.66,2.66,0,0,0,1.38,2.33Zm1.07-10.51a.2.2,0,0,1,.1-.18.2.2,0,0,1,.1,0,.24.24,0,0,1,.11,0l6.38,4.09a.21.21,0,0,1,0,.34L60.12,55a.18.18,0,0,1-.21,0,.2.2,0,0,1-.1-.18Z"/><path class="cls-1" d="M62,64.18A13.46,13.46,0,1,0,48.52,50.72,13.48,13.48,0,0,0,62,64.18Zm0-24.47a11,11,0,1,1-11,11,11,11,0,0,1,11-11Z"/><path class="cls-1" d="M85.47,65.85a1.21,1.21,0,0,0,1.22-1.22,1.2,1.2,0,0,0-.36-.86,1.22,1.22,0,0,0-.86-.36,1.24,1.24,0,0,0-.87.36,1.2,1.2,0,0,0-.36.86,1.24,1.24,0,0,0,.36.87,1.28,1.28,0,0,0,.87.35Z"/><path class="cls-1" d="M38.49,38.61a1.2,1.2,0,0,0,.86-.36,1.22,1.22,0,0,0,.36-.86,1.24,1.24,0,0,0-.36-.87,1.2,1.2,0,0,0-.86-.36,1.24,1.24,0,0,0-.87.36,1.28,1.28,0,0,0-.35.87,1.21,1.21,0,0,0,1.22,1.22Z"/><circle class="cls-2" cx="61.98" cy="61.98" r="60.48"/></g></g></svg>