<svg xmlns="http://www.w3.org/2000/svg" viewBox="0 0 123.95 123.95"><defs><style>.cls-1{fill:none;stroke:#fff;stroke-miterlimit:10;stroke-width:3px;}.cls-2{fill:#fff;}</style></defs><g id="Capa_2" data-name="Capa 2"><g id="Layer_1" data-name="Layer 1"><circle class="cls-1" cx="61.98" cy="61.98" r="60.48"/><path class="cls-2" d="M88.58,34.6H82.42V32.79a3.87,3.87,0,0,0-7.74,0V34.6H53V32.79a3.88,3.88,0,0,0-7.75,0v1.86a1.27,1.27,0,0,0-.34,0H39.74a6.46,6.46,0,0,0-6.45,6.46v22a1.29,1.29,0,0,0,2.58,0V47.9H82.42a1.29,1.29,0,0,0,0-2.58H35.87V41.06a3.88,3.88,0,0,1,3.87-3.88h5.15a1.27,1.27,0,0,0,.34,0V38.8a3.88,3.88,0,0,0,7.75,0V37.18h21.7V38.8a3.87,3.87,0,0,0,7.74,0V37.18h6.16a3.88,3.88,0,0,1,3.87,3.88V90.13a2.33,2.33,0,0,1-4.65,0V86.79a1.3,1.3,0,0,0-1.29-1.3h-15a1.3,1.3,0,0,0,0,2.59H85.22v2a4.79,4.79,0,0,0,.59,2.32h-52a2.33,2.33,0,0,1-2.33-2.32v-2H60.41a1.3,1.3,0,0,0,0-2.59H47.5a10.59,10.59,0,1,0-13.8,0H30.21a1.3,1.3,0,0,0-1.29,1.3v3.34A4.91,4.91,0,0,0,33.83,95h56.3a4.91,4.91,0,0,0,4.9-4.9V41.06a6.46,6.46,0,0,0-6.45-6.46M50.4,38.8a1.29,1.29,0,0,1-2.58,0v-6a1.29,1.29,0,1,1,2.58,0Zm29.44,0a1.29,1.29,0,1,1-2.58,0v-6a1.29,1.29,0,0,1,2.58,0ZM32.6,77.47a8,8,0,1,1,8,8,8,8,0,0,1-8-8"/><path class="cls-2" d="M88.48,47.9a1.3,1.3,0,1,0-.91-.38,1.3,1.3,0,0,0,.91.38"/><path class="cls-2" d="M65.66,85.87a1.32,1.32,0,0,0-.38.92,1.29,1.29,0,0,0,2.2.91,1.29,1.29,0,0,0,0-1.83,1.3,1.3,0,0,0-1.82,0"/><path class="cls-2" d="M58.13,78a4.91,4.91,0,1,0-4.9-4.91A4.91,4.91,0,0,0,58.13,78m0-7.23a2.33,2.33,0,1,1-2.32,2.32,2.32,2.32,0,0,1,2.32-2.32"/><path class="cls-2" d="M70.19,78a4.91,4.91,0,1,0-4.91-4.91A4.91,4.91,0,0,0,70.19,78m0-7.23a2.33,2.33,0,1,1-2.33,2.32,2.32,2.32,0,0,1,2.33-2.32"/><path class="cls-2" d="M82.24,78a4.91,4.91,0,1,0-4.91-4.91A4.92,4.92,0,0,0,82.24,78m0-7.23a2.33,2.33,0,1,1-2.33,2.32,2.32,2.32,0,0,1,2.33-2.32"/><path class="cls-2" d="M51,59.65a4.91,4.91,0,1,0-4.91,4.91A4.91,4.91,0,0,0,51,59.65m-7.23,0A2.33,2.33,0,1,1,46.08,62a2.32,2.32,0,0,1-2.32-2.33"/><path class="cls-2" d="M70.19,64.56a4.91,4.91,0,1,0-4.91-4.91,4.91,4.91,0,0,0,4.91,4.91m0-7.23a2.33,2.33,0,1,1-2.33,2.32,2.32,2.32,0,0,1,2.33-2.32"/><path class="cls-2" d="M82.24,64.56a4.91,4.91,0,1,0-4.91-4.91,4.92,4.92,0,0,0,4.91,4.91m0-7.23a2.33,2.33,0,1,1-2.33,2.32,2.32,2.32,0,0,1,2.33-2.32"/><path class="cls-2" d="M58.13,64.56a4.91,4.91,0,1,0-4.9-4.91,4.91,4.91,0,0,0,4.9,4.91m0-7.23a2.33,2.33,0,1,1-2.32,2.32,2.32,2.32,0,0,1,2.32-2.32"/><path class="cls-2" d="M38.26,81.27a1.3,1.3,0,0,0,.91.38,1.34,1.34,0,0,0,.92-.38l5.11-5.12a1.29,1.29,0,0,0-1.82-1.82l-4.21,4.2-1.44-1.44a1.29,1.29,0,1,0-1.82,1.83Z"/></g></g></svg>