<svg xmlns="http://www.w3.org/2000/svg" viewBox="0 0 123.95 123.95"><defs><style>.cls-1,.cls-2{fill:none;stroke:#0a518f;stroke-miterlimit:10;}.cls-1{stroke-width:3px;}.cls-2{stroke-linecap:round;stroke-width:3.5px;}</style></defs><g id="Capa_2" data-name="Capa 2"><g id="Layer_1" data-name="Layer 1"><circle class="cls-1" cx="61.98" cy="61.98" r="60.48"/><path class="cls-2" d="M51.23,58.14C44.14,56,38.9,48.31,38.9,39.21c0-10.81,7.38-19.57,16.49-19.57S71.87,28.4,71.87,39.21,68.26,58.7,57.17,58.7"/><path class="cls-2" d="M47.83,57.09l-1.59,7.56A8.75,8.75,0,0,0,55,71.4c6,0,8.94-3.77,8.94-6.36a53.8,53.8,0,0,0-1.19-6.84"/><path class="cls-2" d="M46.24,64.65S29.15,61.67,24,84.12c2.19,4.37,8.65,23.32,38.93,18.68"/><path class="cls-2" d="M63.92,65s4.4-.5,6.59.15"/><line class="cls-2" x1="37.89" y1="81.94" x2="37.89" y2="99.62"/><circle class="cls-2" cx="81.61" cy="85.74" r="18.36"/><path class="cls-2" d="M88,76.71a6.3,6.3,0,0,0-6.39,2.62,6.31,6.31,0,0,0-6.39-2.62A5.63,5.63,0,0,0,71,82.35c-.14,8,10.44,14.52,10.54,14.55l.12,0,.12,0c.11,0,10.68-6.58,10.55-14.55A5.63,5.63,0,0,0,88,76.71Z"/></g></g></svg>