<svg xmlns="http://www.w3.org/2000/svg" viewBox="0 0 123.95 123.95"><defs><style>.cls-1{fill:none;stroke:#fff;stroke-miterlimit:10;stroke-width:3px;}</style></defs><g id="Capa_2" data-name="Capa 2"><g id="Capa_2-2" data-name="Capa 2"><circle class="cls-1" cx="61.98" cy="61.98" r="60.48"/><path class="cls-1" d="M40.4,82.93a20.53,20.53,0,0,1,40.6,0Z"/><path class="cls-1" d="M21.35,82.93A17,17,0,0,1,45.68,70.82,26.65,26.65,0,0,0,41.1,82.93Z"/><path class="cls-1" d="M80.3,82.93a26.65,26.65,0,0,0-4.58-12.11,17,17,0,0,1,24.33,12.11Z"/><path class="cls-1" d="M60.7,41A11.88,11.88,0,1,1,48.81,52.91,11.89,11.89,0,0,1,60.7,41Z"/><path class="cls-1" d="M28.43,59a9.64,9.64,0,1,1,9.64,9.65A9.65,9.65,0,0,1,28.43,59Z"/><circle class="cls-1" cx="83.33" cy="59.03" r="9.64"/></g></g></svg>