<svg xmlns="http://www.w3.org/2000/svg" viewBox="0 0 123.95 123.95"><defs><style>.cls-1{fill:none;stroke:#0a518f;stroke-miterlimit:10;stroke-width:3px;}.cls-2{fill:#0a518f;}</style></defs><g id="Capa_2" data-name="Capa 2"><g id="Layer_1" data-name="Layer 1"><circle class="cls-1" cx="61.98" cy="61.98" r="60.48"/><path class="cls-2" d="M48.23,71.54H84.4a.91.91,0,0,0,0-1.82H48.23a.91.91,0,1,0,0,1.82Z"/><path class="cls-2" d="M40.2,71.54h4.24a.91.91,0,0,0,0-1.82H40.2a.91.91,0,1,0,0,1.82Z"/><path class="cls-2" d="M95.93,80.43V40.1a4.59,4.59,0,0,0-4.59-4.57h-7a22.35,22.35,0,0,0-43.78,0H33.29A4.59,4.59,0,0,0,28.7,40.1V80.36a5,5,0,0,0,.17,9.92H95.08a5,5,0,0,0,.85-9.85ZM50.68,30.77a29.81,29.81,0,0,0-1.37,8.32H41.94a20.47,20.47,0,0,1,4.42-11.81,22.33,22.33,0,0,0,4.32,3.49Zm27.85-3.48a20.4,20.4,0,0,1,4.41,11.8H75.57c0-.62,0-1.23-.1-1.83-.09-1-.22-2.06-.41-3.08a30,30,0,0,0-.85-3.39,22.38,22.38,0,0,0,4.32-3.5ZM49.31,40.91a29.69,29.69,0,0,0,1.37,8.32,22.33,22.33,0,0,0-4.32,3.49,20.44,20.44,0,0,1-4.42-11.81Zm2,10.08a21.59,21.59,0,0,0,6.6,9,20.49,20.49,0,0,1-10.35-5.9A20.33,20.33,0,0,1,51.31,51Zm21.74-4.47c-.13.61-.29,1.2-.47,1.77a22.09,22.09,0,0,0-9.23-2.38v-5h10.4c0,.87-.09,1.74-.18,2.58a28.2,28.2,0,0,1-.52,3Zm-9.7,1.21A20.2,20.2,0,0,1,72,50,19.09,19.09,0,0,1,63.35,60.2ZM61.53,60.2A19.08,19.08,0,0,1,52.9,50.06a20.49,20.49,0,0,1,8.63-2.32Zm12-9.23a19.67,19.67,0,0,1,3.75,3.13A20.52,20.52,0,0,1,67,60a21.41,21.41,0,0,0,6.61-9Zm5,1.74a22.38,22.38,0,0,0-4.32-3.5c.23-.74.44-1.5.62-2.28a29.81,29.81,0,0,0,.54-3.23c.11-.91.17-1.85.2-2.79h7.37a20.4,20.4,0,0,1-4.41,11.8Zm-5.26-18.2c.17,1,.3,1.93.38,2.9,0,.55.08,1.12.1,1.68H63.35v-5a22.09,22.09,0,0,0,9.23-2.38,27.23,27.23,0,0,1,.69,2.8Zm-9.92-2.24V19.8A19,19,0,0,1,72,30a20.33,20.33,0,0,1-8.64,2.3Zm-1.82,0a20.49,20.49,0,0,1-8.63-2.32A19.16,19.16,0,0,1,61.53,19.8m0,14.29v5H60.09a.91.91,0,0,0,0,1.82h1.44v5a22.35,22.35,0,0,0-9.23,2.41,28.23,28.23,0,0,1-1.17-7.41h2.32a.91.91,0,0,0,0-1.82H51.13a28.23,28.23,0,0,1,1.17-7.41,22.35,22.35,0,0,0,9.23,2.41Zm.91,28.24a22.39,22.39,0,0,0,22-18.64H88v31H36.62v-31h3.79a22.37,22.37,0,0,0,22,18.64ZM77.33,25.91A20,20,0,0,1,73.58,29,21.34,21.34,0,0,0,67,20a20.5,20.5,0,0,1,10.35,5.91ZM57.92,20a21.52,21.52,0,0,0-6.61,9,19.94,19.94,0,0,1-3.75-3.11A20.52,20.52,0,0,1,57.92,20ZM33.29,37.35h7A21.3,21.3,0,0,0,40.1,40c0,.63,0,1.25.08,1.87H36.37a1.57,1.57,0,0,0-1.57,1.57v31.5a1.57,1.57,0,0,0,1.57,1.57H88.26a1.57,1.57,0,0,0,1.57-1.57V43.44a1.57,1.57,0,0,0-1.57-1.57H84.7c0-.61.08-1.24.08-1.87a21.3,21.3,0,0,0-.16-2.65h6.72a2.77,2.77,0,0,1,2.77,2.75V80.36H72.56a2.73,2.73,0,0,0-2.74,2.74.93.93,0,0,1-.93.92H54.2a.93.93,0,0,1-.93-.92,2.74,2.74,0,0,0-2.75-2.74h-20V40.1a2.77,2.77,0,0,1,2.77-2.75Zm64,50.18a3.16,3.16,0,0,1-2.24.93H28.87a3.15,3.15,0,0,1-2.22-5.37,3.17,3.17,0,0,1,2.22-.91H50.52a.92.92,0,0,1,.93.92,2.75,2.75,0,0,0,2.75,2.74H68.89a2.76,2.76,0,0,0,2.75-2.74.92.92,0,0,1,.92-.92H95.08a3.15,3.15,0,0,1,3.16,3.13,3.11,3.11,0,0,1-.92,2.22Z"/><path class="cls-2" d="M56.75,40.91h0a.91.91,0,0,0,0-1.82h0a.91.91,0,1,0,0,1.82Z"/></g></g></svg>