<svg xmlns="http://www.w3.org/2000/svg" viewBox="0 0 123.95 123.95"><defs><style>.cls-1{fill:none;stroke:#fff;stroke-miterlimit:10;stroke-width:3px;}.cls-2{fill:#fff;}</style></defs><g id="Capa_2" data-name="Capa 2"><g id="Layer_1" data-name="Layer 1"><circle class="cls-1" cx="61.98" cy="61.98" r="60.48"/><path class="cls-2" d="M77.74,40.91a1.33,1.33,0,0,0,1.37,0l3.63-2.1a1.36,1.36,0,0,0,0-2.36l-3.63-2.1a1.34,1.34,0,0,0-1.37,0,1.37,1.37,0,0,0-.69,1.18v4.2a1.37,1.37,0,0,0,.69,1.18Z"/><path class="cls-2" d="M83.63,75.32a9.19,9.19,0,0,0,2.88-6.68V65.16a9.21,9.21,0,0,0-5.38-8.37V48.3h7.93a4.59,4.59,0,0,0,4.58-4.58V31.54A4.59,4.59,0,0,0,89.06,27H71.42a4.59,4.59,0,0,0-4.59,4.58v.89h-33A6.85,6.85,0,0,0,27,39.27V66.63a6.85,6.85,0,0,0,6.84,6.84H48.3v6H44a1.37,1.37,0,1,0,0,2.74H60.3A15.82,15.82,0,0,0,57.62,91v4.58A1.37,1.37,0,0,0,59,97H71.15a1.37,1.37,0,1,0,0-2.73H60.36V91a13.21,13.21,0,0,1,13.2-13.2h7.5A13.21,13.21,0,0,1,94.26,91v3.22H83.46a1.37,1.37,0,0,0,0,2.73H95.62A1.37,1.37,0,0,0,97,95.62V91A16,16,0,0,0,83.63,75.32Zm.14-10.16v3.48a6.47,6.47,0,1,1-12.93,0V65.16a6.47,6.47,0,1,1,12.93,0ZM69.57,31.54a1.85,1.85,0,0,1,1.85-1.84H89.06a1.85,1.85,0,0,1,1.85,1.84V43.72a1.85,1.85,0,0,1-1.85,1.84H71.42a1.85,1.85,0,0,1-1.85-1.84ZM33.8,35.17h33v8.55a4.59,4.59,0,0,0,4.59,4.58h7V56A9.64,9.64,0,0,0,77.31,56a9.2,9.2,0,0,0-8.63,6H65.81V61.7A11.78,11.78,0,0,0,58.5,50.82a6.3,6.3,0,0,0,1.84-4.44V44.2a6.3,6.3,0,1,0-12.59,0v2.18a6.26,6.26,0,0,0,1.84,4.44A11.77,11.77,0,0,0,42.28,61.7V62H29.7V39.27a4.11,4.11,0,0,1,4.1-4.1ZM50.49,46.38V44.2a3.56,3.56,0,1,1,7.11,0v2.18a3.56,3.56,0,1,1-7.11,0ZM54,52.68a9,9,0,0,1,9,9V62H45V61.7a9,9,0,0,1,9-9ZM29.7,66.63V64.71H68.12c0,.15,0,.3,0,.45v3.48a9,9,0,0,0,.24,2.09H33.8a4.11,4.11,0,0,1-4.1-4.1ZM51,79.48v-6h6v6Zm11.57,0H59.79v-6h9.69A9.26,9.26,0,0,0,71,75.32a15.88,15.88,0,0,0-8.39,4.16Z"/><path class="cls-2" d="M77.31,94.26a1.37,1.37,0,0,0-1,.4,1.36,1.36,0,0,0,0,1.93,1.38,1.38,0,0,0,1.94,0,1.36,1.36,0,0,0,0-1.93,1.37,1.37,0,0,0-1-.4Z"/></g></g></svg>