<svg xmlns="http://www.w3.org/2000/svg" viewBox="0 0 123.95 123.95"><defs><style>.cls-1,.cls-2,.cls-3{fill:none;stroke:#fff;stroke-width:3px;}.cls-1,.cls-2{stroke-linecap:round;stroke-linejoin:round;}.cls-1{fill-rule:evenodd;}.cls-3{stroke-miterlimit:10;}</style></defs><g id="Capa_2" data-name="Capa 2"><g id="Layer_1" data-name="Layer 1"><path class="cls-1" d="M68.26,29.17H29a6.54,6.54,0,0,0-6.54,6.55v23A6.54,6.54,0,0,0,29,65.28h4V80.52L45.75,65.28H68.26a6.55,6.55,0,0,0,6.55-6.55v-23A6.55,6.55,0,0,0,68.26,29.17Z"/><path class="cls-1" d="M81.77,50.8h14a5.72,5.72,0,0,1,5.73,5.73V76.7a5.73,5.73,0,0,1-5.73,5.73h-3.5V94.78L81.09,82.43H61.37a5.74,5.74,0,0,1-5.74-5.73V72.12"/><line class="cls-2" x1="32.4" y1="41.06" x2="64.9" y2="41.06"/><line class="cls-2" x1="32.4" y1="51.63" x2="64.9" y2="51.63"/><circle class="cls-3" cx="61.98" cy="61.98" r="60.48"/></g></g></svg>