<svg xmlns="http://www.w3.org/2000/svg" viewBox="0 0 123.95 123.95"><defs><style>.cls-1{fill:#fff;}.cls-2{fill:none;stroke:#fff;stroke-miterlimit:10;stroke-width:3px;}</style></defs><g id="Capa_2" data-name="Capa 2"><g id="Layer_1" data-name="Layer 1"><path class="cls-1" d="M92.52,84.52a25,25,0,0,0-1.23-7.73,1.51,1.51,0,0,0-2.87.94,22,22,0,0,1,1.08,6.79,7.07,7.07,0,0,1-6.79,7.06,5.16,5.16,0,0,0,1.19-.91,5.67,5.67,0,0,0,0-8L83.23,82a5.94,5.94,0,0,0-1.58-1.11V74.06a1.51,1.51,0,0,0-1.51-1.51H65a4.5,4.5,0,0,0-3,1.16,4.52,4.52,0,0,0-3-1.16H43.81a1.52,1.52,0,0,0-1.51,1.51v6.81A5.89,5.89,0,0,0,40.73,82l-.68.68a5.66,5.66,0,0,0,1.19,8.92,7.07,7.07,0,0,1-6.78-7.06A21.87,21.87,0,0,1,55.55,62.7V63A6.43,6.43,0,0,0,68.4,63V62.7a21.64,21.64,0,0,1,12.82,4.71,1.52,1.52,0,0,0,.94.33,1.5,1.5,0,0,0,1.18-.57A1.52,1.52,0,0,0,83.1,65a24.51,24.51,0,0,0-13.32-5.28,11.91,11.91,0,0,0,4.11-9V44.93a7.47,7.47,0,0,0,1-14.2A8.21,8.21,0,0,0,62,24.83a8.21,8.21,0,0,0-13,5.9,7.48,7.48,0,0,0,1,14.2v5.82a11.9,11.9,0,0,0,4.12,9,24.89,24.89,0,0,0-22.7,24.77,10.07,10.07,0,0,0,5.11,8.76,19,19,0,0,0-.92,5.85,1.51,1.51,0,1,0,3,0,15.87,15.87,0,0,1,.72-4.76,10.28,10.28,0,0,0,2.16.23,3.94,3.94,0,0,0,.77-.08v4.61a1.52,1.52,0,0,0,1.51,1.52H80.14a1.51,1.51,0,0,0,1.51-1.52V94.53a4,4,0,0,0,.78.08,10.12,10.12,0,0,0,2.15-.23,15.88,15.88,0,0,1,.73,4.76,1.51,1.51,0,1,0,3,0,19,19,0,0,0-.92-5.85,10.09,10.09,0,0,0,5.11-8.77ZM62,66.37A3.41,3.41,0,0,1,58.57,63V62.2a11.87,11.87,0,0,0,3.39.49,12.09,12.09,0,0,0,3.42-.5V63a3.41,3.41,0,0,1-3.4,3.4ZM47.34,37.67a4.48,4.48,0,0,1,3.48-4.35A1.5,1.5,0,0,0,52,31.77a2.26,2.26,0,0,1,0-.26,5.2,5.2,0,0,1,5.19-5.19,5.12,5.12,0,0,1,3.7,1.56,1.54,1.54,0,0,0,1.08.45A1.57,1.57,0,0,0,63,27.88a5.12,5.12,0,0,1,3.7-1.56,5.19,5.19,0,0,1,5.18,5.19v.26a1.5,1.5,0,0,0,1.18,1.55A4.46,4.46,0,1,1,68.32,40,1.49,1.49,0,0,0,67,39.29a1.51,1.51,0,0,0-1.29.72,4.46,4.46,0,0,1-7.59,0,1.49,1.49,0,0,0-1.28-.72,1.51,1.51,0,0,0-1.29.72,4.46,4.46,0,0,1-8.25-2.34ZM53,50.75V45a7.37,7.37,0,0,0,3.84-1.88,7.48,7.48,0,0,0,10.16,0A7.38,7.38,0,0,0,70.87,45v5.71a8.92,8.92,0,1,1-17.83,0ZM81.77,88.54a2.66,2.66,0,0,1-3.74,0l-.68-.68a2.64,2.64,0,0,1,3.74-3.74l.68.68a2.65,2.65,0,0,1,0,3.74ZM42.19,84.8l.68-.68a2.64,2.64,0,1,1,3.73,3.74l-.68.68a2.64,2.64,0,0,1-3.73-3.74Zm3.13,7.38a5.54,5.54,0,0,0,2.74-1.51l.68-.68a5.65,5.65,0,0,0-3.42-9.63V75.57H59a1.52,1.52,0,0,1,1.51,1.52V97.63H45.32Zm18.17,5.45V77.09A1.52,1.52,0,0,1,65,75.57H78.63v4.79A5.66,5.66,0,0,0,75.22,90l.67.68a5.58,5.58,0,0,0,2.74,1.51v5.45Z"/><path class="cls-1" d="M86.82,72.69a1.52,1.52,0,0,0,1.06-.44,1.5,1.5,0,0,0,0-2.14,1.51,1.51,0,1,0-1.06,2.58Z"/><path class="cls-1" d="M62,55.73a4.63,4.63,0,0,0,3.28-1.36,1.51,1.51,0,0,0-2.13-2.14,1.64,1.64,0,0,1-2.3,0,1.51,1.51,0,0,0-2.14,2.14A4.68,4.68,0,0,0,62,55.73Z"/><circle class="cls-2" cx="61.98" cy="61.98" r="60.48"/></g></g></svg>