<svg xmlns="http://www.w3.org/2000/svg" viewBox="0 0 41.88 28.51"><defs><style>.cls-1{fill:#0a518f;}</style></defs><g id="Capa_2" data-name="Capa 2"><g id="Layer_1" data-name="Layer 1"><path class="cls-1" d="M35.8.05H33.74a1.22,1.22,0,0,0-.42.09,1.34,1.34,0,0,0-.44-.1L1.59,0A1.57,1.57,0,0,0,0,1.58V5.94A16.31,16.31,0,0,0,16.27,22.25h1.86A16.31,16.31,0,0,0,34.45,6V3.21H35.8a2.94,2.94,0,0,1,2.92,2.93v.57a2.93,2.93,0,0,1-2.93,2.93,1.58,1.58,0,1,0,0,3.16,6.1,6.1,0,0,0,6.09-6.08V6.15A6.09,6.09,0,0,0,35.8.05M31.29,6A13.17,13.17,0,0,1,18.14,19.1H16.27A13.14,13.14,0,0,1,3.16,5.94V3.16l28.12,0Z"/><path class="cls-1" d="M29.84,25.35l-26,0a1.58,1.58,0,1,0,0,3.16l26,0a1.58,1.58,0,0,0,0-3.16"/></g></g></svg>